<?xml version="1.0" encoding="utf-8"?>
<!-- Generator: Adobe Illustrator 18.1.1, SVG Export Plug-In . SVG Version: 6.00 Build 0)  -->
<!DOCTYPE svg PUBLIC "-//W3C//DTD SVG 1.1 Tiny//EN" "http://www.w3.org/Graphics/SVG/1.1/DTD/svg11-tiny.dtd">
<svg version="1.1" baseProfile="tiny" xmlns="http://www.w3.org/2000/svg" xmlns:xlink="http://www.w3.org/1999/xlink" x="0px"
	 y="0px" width="32px" height="32px" viewBox="0 0 32 32" xml:space="preserve">
<g id="Guides__x26__Forms">
</g>
<g id="Icons">
	<g>
		<path d="M6.628,12.468c-0.583-1.12-0.641-1.882-0.481-2.159c0.194-0.337,1.027-0.677,2.449-0.677c0.484,0,1.007,0.051,1.547,0.127
			c0.516-0.34,1.043-0.673,1.589-0.988c0.592-0.34,1.188-0.651,1.788-0.948c0.856-2.1,1.892-3.202,2.482-3.202
			c0.407,0,1.024,0.522,1.648,1.528c0.903-0.282,1.787-0.497,2.646-0.657c-1.146-2.168-2.646-3.497-4.294-3.497
			c-2.049,0-3.872,2.041-5.065,5.221c-0.827-0.138-1.611-0.21-2.342-0.209c-2.235,0-3.949,0.651-4.722,1.99
			c-0.817,1.414-0.429,3.355,0.85,5.411C5.295,13.747,5.932,13.099,6.628,12.468z"/>
		<path d="M14.855,22.742c0.663,0.315,1.323,0.605,1.974,0.855c0.281-0.681,0.551-1.518,0.777-2.517
			c-1.17-0.459-2.361-1.028-3.52-1.696C14.268,20.716,14.547,21.825,14.855,22.742z"/>
		<path d="M25.921,15.741c0.062-0.221,0.104-0.45,0.104-0.691c0-1.451-1.176-2.626-2.626-2.626c-0.296,0-0.574,0.059-0.839,0.149
			c-1.004-0.78-2.106-1.528-3.301-2.218c-0.004-0.002-0.008-0.004-0.013-0.007c1.505-0.46,2.934-0.716,4.162-0.716
			c1.42,0,2.253,0.34,2.448,0.677c0.103,0.177,0.113,0.557-0.039,1.096c0.862,0.573,1.491,1.446,1.778,2.466
			c1.019-1.856,1.281-3.585,0.535-4.875c-0.773-1.34-2.486-1.99-4.722-1.99c-2.964,0-6.846,1.146-10.665,3.349
			c-6.698,3.867-10.671,9.53-8.871,12.646c0.774,1.34,2.488,1.992,4.724,1.992c0.171,0,0.356-0.017,0.533-0.025
			c-0.28-0.809-0.519-1.681-0.721-2.607c-1.303-0.029-2.075-0.35-2.262-0.674C5.94,21.332,6.07,20.18,7.271,18.469
			c0.581-0.828,1.337-1.669,2.214-2.487c0,0.007,0,0.012,0,0.017c0,7.735,2.917,14.007,6.516,14.007
			c3.072,0,5.631-4.582,6.319-10.729c-1.019-0.261-1.896-0.869-2.488-1.704c-0.357,6.371-2.787,9.806-3.831,9.806
			c-1.128,0-3.89-3.988-3.89-11.381c0-0.771,0.037-1.496,0.092-2.192c0.594-0.41,1.211-0.807,1.853-1.177
			c0.642-0.37,1.293-0.702,1.945-1.01c0.651,0.307,1.303,0.639,1.946,1.01c1.019,0.589,1.985,1.239,2.876,1.922
			c-0.031,0.162-0.05,0.327-0.05,0.498c0,1.45,1.175,2.626,2.626,2.626c0.225,0,0.439-0.038,0.648-0.091
			c0.246,0.295,0.479,0.59,0.685,0.883c1.201,1.712,1.33,2.864,1.124,3.221c-0.185,0.321-0.952,0.64-2.247,0.672
			c-0.203,0.921-0.445,1.795-0.73,2.607c0.176,0.008,0.357,0.025,0.527,0.025c2.236,0,3.95-0.651,4.723-1.992
			C29.19,21.169,28.238,18.453,25.921,15.741z"/>
	</g>
</g>
</svg>
