<?xml version="1.0" encoding="utf-8"?>
<!-- Generator: Adobe Illustrator 18.1.1, SVG Export Plug-In . SVG Version: 6.00 Build 0)  -->
<!DOCTYPE svg PUBLIC "-//W3C//DTD SVG 1.1 Tiny//EN" "http://www.w3.org/Graphics/SVG/1.1/DTD/svg11-tiny.dtd">
<svg version="1.1" baseProfile="tiny" xmlns="http://www.w3.org/2000/svg" xmlns:xlink="http://www.w3.org/1999/xlink" x="0px"
	 y="0px" width="32px" height="32px" viewBox="0 0 32 32" xml:space="preserve">
<g id="Guides__x26__Forms">
</g>
<g id="Icons">
	<g>
		<path d="M29.836,24.705L21,9.917V4h2V2H9v2h2v5.917L2.164,24.705C0.77,27.038,2.451,30,5.168,30h21.663
			C29.549,30,31.23,27.038,29.836,24.705z M28.136,27.24C28.007,27.469,27.62,28,26.832,28H5.168c-0.788,0-1.175-0.531-1.305-0.76
			c-0.13-0.228-0.387-0.833,0.017-1.51L13,10.469V4h6v6.469l9.119,15.262C28.524,26.407,28.266,27.012,28.136,27.24z"/>
		<path d="M22.335,18H9.665l-4.926,8.243c-0.037,0.062-0.149,0.25-0.006,0.503C4.877,27,5.096,27,5.168,27h21.663
			c0.072,0,0.291,0,0.435-0.253c0.144-0.253,0.031-0.441-0.006-0.503L22.335,18z"/>
	</g>
</g>
</svg>
