<?xml version="1.0" encoding="utf-8"?>
<!-- Generator: Adobe Illustrator 18.1.1, SVG Export Plug-In . SVG Version: 6.00 Build 0)  -->
<!DOCTYPE svg PUBLIC "-//W3C//DTD SVG 1.1 Tiny//EN" "http://www.w3.org/Graphics/SVG/1.1/DTD/svg11-tiny.dtd">
<svg version="1.1" baseProfile="tiny" xmlns="http://www.w3.org/2000/svg" xmlns:xlink="http://www.w3.org/1999/xlink" x="0px"
	 y="0px" width="32px" height="32px" viewBox="0 0 32 32" xml:space="preserve">
<g id="Guides__x26__Forms">
</g>
<g id="Icons">
	<g>
		<path d="M20,9.697V7h2V5H10v2h2v2.697C7.342,11.346,4,15.777,4,21c0,3.589,1.584,6.801,4.081,9h15.838
			C26.416,27.801,28,24.589,28,21C28,15.777,24.658,11.346,20,9.697z M23.124,28H8.876C7.04,26.133,6,23.62,6,21
			c0-4.221,2.679-8.005,6.667-9.417L14,11.111V7h4v4.111l1.333,0.472C23.321,12.995,26,16.779,26,21
			C26,23.62,24.96,26.133,23.124,28z"/>
		<rect x="13" y="2" width="6" height="2"/>
		<path d="M24.477,18H7.523C7.19,18.94,7,19.946,7,21c0,2.308,0.876,4.407,2.305,6h13.389C24.124,25.407,25,23.308,25,21
			C25,19.946,24.81,18.94,24.477,18z"/>
	</g>
</g>
</svg>
