<?xml version="1.0" encoding="utf-8"?>
<!-- Generator: Adobe Illustrator 18.1.1, SVG Export Plug-In . SVG Version: 6.00 Build 0)  -->
<!DOCTYPE svg PUBLIC "-//W3C//DTD SVG 1.1 Tiny//EN" "http://www.w3.org/Graphics/SVG/1.1/DTD/svg11-tiny.dtd">
<svg version="1.1" baseProfile="tiny" xmlns="http://www.w3.org/2000/svg" xmlns:xlink="http://www.w3.org/1999/xlink" x="0px"
	 y="0px" width="32px" height="32px" viewBox="0 0 32 32" xml:space="preserve">
<g id="Guides__x26__Forms">
</g>
<g id="Icons">
	<g>
		<rect x="12" y="2" width="8" height="3.974"/>
		<path d="M22.806,11.45L20,10.003V7h-2v4.223l3.897,2.008C22.578,13.578,23,14.256,23,15v13H9V15c0-0.744,0.423-1.422,1.11-1.773
			L14,11.223V7h-2v3.003L9.194,11.45C7.897,12.111,7,13.444,7,15v13c0,1.105,0.895,2,2,2h14c1.105,0,2-0.895,2-2V15
			C25,13.444,24.103,12.111,22.806,11.45z"/>
		<rect x="10" y="16.033" width="12" height="10.967"/>
	</g>
</g>
</svg>
