<?xml version="1.0" encoding="utf-8"?>
<!-- Generator: Adobe Illustrator 18.1.1, SVG Export Plug-In . SVG Version: 6.00 Build 0)  -->
<!DOCTYPE svg PUBLIC "-//W3C//DTD SVG 1.1 Tiny//EN" "http://www.w3.org/Graphics/SVG/1.1/DTD/svg11-tiny.dtd">
<svg version="1.1" baseProfile="tiny" xmlns="http://www.w3.org/2000/svg" xmlns:xlink="http://www.w3.org/1999/xlink" x="0px"
	 y="0px" width="32px" height="32px" viewBox="0 0 32 32" xml:space="preserve">
<g id="Guides__x26__Forms">
</g>
<g id="Icons">
	<g>
		<path d="M12.841,17.275l0.011-0.004c-0.247-0.103-0.412-0.192-0.615-0.313c-0.575-0.344-0.952-0.752-1.076-1.153
			c0.357-0.074,0.73-0.236,1.082-0.49c1.012-0.732,1.461-1.934,1.002-2.686c-0.499-0.818-1.864-0.763-2.913,0.168
			c-1.003,0.866-1.217,1.771-1.217,2.722c0,0.672,0.215,1.872,1.528,2.914C11.263,17.954,12.002,17.56,12.841,17.275z
			 M11.499,12.985c0.276,0,0.5,0.227,0.5,0.508S11.775,14,11.499,14s-0.5-0.227-0.5-0.508S11.223,12.985,11.499,12.985z"/>
		<path d="M21.665,12.797c-1.048-0.93-2.414-0.987-2.913-0.168c-0.458,0.752-0.01,1.954,1.002,2.686
			c0.352,0.254,0.725,0.416,1.082,0.49c-0.124,0.401-0.501,0.809-1.076,1.153c-0.543,0.324-0.814,0.418-3.124,1.173
			c-0.792,0.258-1.812,0.592-3.152,1.037c-1.872,0.636-2.986,1.9-2.986,3.381c0,1.055,0.539,1.869,1.288,2.465
			c0.471-0.485,1.059-0.906,1.746-1.243c-0.791-0.4-1.035-0.703-1.035-1.222c0-0.38,0.542-0.949,1.576-1.3
			c0.327-0.109,0.635-0.211,0.926-0.307v2.168l2-0.892v-1.275c0.29,0.096,0.597,0.197,0.923,0.306c1.034,0.352,1.576,0.92,1.576,1.3
			c0,0.921-0.777,1.119-3.5,2.334c-1.57,0.7-1.828,0.793-2.305,1.122c0,0,0.001,0,0.001,0C12.853,26.588,12.4,27.329,12.4,28.2
			c0,0.5,0.058,1.12,0.936,1.736l0.001-0.001C13.387,29.975,13.45,30,13.519,30c0.16,0,0.29-0.13,0.29-0.29
			c0-0.053-0.015-0.102-0.04-0.145l0.001,0c-0.58-1.161,0.035-1.741,1.231-2.243V29c0,0.552,0.448,1,1,1s1-0.448,1-1v-1.677
			c1.149,0.482,1.872,1.163,1.229,2.242l0.001,0.001c-0.025,0.043-0.04,0.092-0.04,0.145c0,0.16,0.13,0.29,0.29,0.29
			c0.069,0,0.131-0.025,0.181-0.065l0.001,0.001c0.85-0.644,0.916-1.197,0.916-1.724c0-0.811-0.444-1.598-1.286-2.201
			c1.702-0.615,3.208-1.65,3.208-3.461c0-1.251-0.795-2.347-2.169-3.041c0.642-0.231,0.965-0.386,1.394-0.642
			c1.879-1.123,2.159-2.58,2.159-3.348C22.882,14.568,22.669,13.663,21.665,12.797z M20.499,14c-0.276,0-0.5-0.227-0.5-0.508
			s0.224-0.508,0.5-0.508s0.5,0.227,0.5,0.508S20.775,14,20.499,14z"/>
		<path d="M12.27,9.302c0.289-0.41,0.876-0.461,1.227-0.104L14,9.711V6.39l-2.013-2.051v0.001C11.254,3.518,10.188,3,9,3H1.991
			c0,0.981,0.471,1.853,1.2,2.4H2.822c0,1.455,1.035,2.667,2.409,2.942C5.783,9.891,7.262,11,9,11
			C10.352,11,11.546,10.329,12.27,9.302z"/>
		<path d="M30.009,3H23c-1.188,0-2.254,0.518-2.987,1.341V4.339L17,7.409V5.73c0.609-0.353,1.016-1.016,1-1.774
			c-0.022-1.034-0.858-1.899-1.891-1.953C14.954,1.942,14,2.86,14,4c0,0.74,0.403,1.384,1,1.73v10.832l2-0.655V10.73l1.503-1.531
			c0.351-0.358,0.938-0.306,1.227,0.104C20.454,10.329,21.648,11,23,11c1.738,0,3.217-1.109,3.769-2.659
			c1.374-0.274,2.409-1.487,2.409-2.942h-0.369C29.538,4.853,30.009,3.981,30.009,3z"/>
	</g>
</g>
</svg>
