<?xml version="1.0" encoding="utf-8"?>
<!-- Generator: Adobe Illustrator 18.1.1, SVG Export Plug-In . SVG Version: 6.00 Build 0)  -->
<!DOCTYPE svg PUBLIC "-//W3C//DTD SVG 1.1 Tiny//EN" "http://www.w3.org/Graphics/SVG/1.1/DTD/svg11-tiny.dtd">
<svg version="1.1" baseProfile="tiny" xmlns="http://www.w3.org/2000/svg" xmlns:xlink="http://www.w3.org/1999/xlink" x="0px"
	 y="0px" width="32px" height="32px" viewBox="0 0 32 32" xml:space="preserve">
<g id="Guides__x26__Forms">
</g>
<g id="Icons">
	<path d="M29.353,14.909c-0.375-0.198-0.813-0.206-1.199-0.069L27,14.231V9.398l1.136-0.684c0.14,0.043,0.285,0.071,0.435,0.071
		c0.272,0,0.54-0.074,0.773-0.215c0.343-0.207,0.585-0.535,0.682-0.923c0.096-0.389,0.036-0.792-0.171-1.135
		c-0.41-0.681-1.376-0.923-2.059-0.511c-0.378,0.228-0.614,0.598-0.692,1.001l-1.104,0.665L22,5.268V3.944
		c0.305-0.275,0.5-0.668,0.5-1.11c0-0.827-0.673-1.5-1.5-1.5s-1.5,0.673-1.5,1.5c0,0.442,0.195,0.835,0.5,1.11v1.324l-4,2.4l-4-2.4
		V3.944c0.305-0.275,0.5-0.668,0.5-1.11c0-0.827-0.673-1.5-1.5-1.5s-1.5,0.673-1.5,1.5c0,0.442,0.195,0.835,0.5,1.11v1.324
		L6.001,7.667L4.897,7.002C4.819,6.599,4.583,6.228,4.205,6.001c-0.683-0.413-1.648-0.17-2.059,0.51
		C1.938,6.854,1.878,7.258,1.974,7.647C2.071,8.035,2.313,8.363,2.656,8.57C2.89,8.711,3.157,8.785,3.429,8.785
		c0.15,0,0.295-0.028,0.435-0.071L5,9.399v4.832l-1.153,0.61c-0.386-0.137-0.824-0.13-1.2,0.069
		c-0.731,0.387-1.011,1.296-0.625,2.027c0.261,0.493,0.769,0.799,1.327,0.799c0.243,0,0.484-0.06,0.7-0.174
		c0.39-0.206,0.647-0.563,0.747-0.96l1.173-0.62L10,18.4v4.831l-1.153,0.61c-0.387-0.137-0.825-0.129-1.2,0.069
		c-0.731,0.387-1.011,1.296-0.625,2.027c0.261,0.493,0.769,0.799,1.327,0.799c0.243,0,0.484-0.06,0.7-0.174
		c0.39-0.206,0.647-0.563,0.747-0.96l1.173-0.62L15,27.4v1.324c-0.305,0.275-0.5,0.668-0.5,1.11c0,0.827,0.673,1.5,1.5,1.5
		s1.5-0.673,1.5-1.5c0-0.442-0.195-0.835-0.5-1.11V27.4l4.031-2.418l1.173,0.62c0.101,0.398,0.357,0.754,0.747,0.961
		c0.215,0.113,0.457,0.173,0.7,0.173c0.558,0,1.066-0.306,1.327-0.799c0.387-0.731,0.106-1.641-0.625-2.027
		c-0.375-0.199-0.813-0.206-1.199-0.069L22,23.231V18.4l4.031-2.418l1.173,0.62c0.101,0.398,0.357,0.754,0.747,0.961
		c0.215,0.113,0.457,0.173,0.7,0.173c0.558,0,1.066-0.306,1.327-0.799C30.365,16.206,30.084,15.296,29.353,14.909z M20,23.267
		l-4,2.4l-4-2.4V18.4l4-2.4l4,2.4V23.267z M25,14.267l-4,2.4l-4-2.4V9.4L21,7l4,2.4V14.267z"/>
</g>
</svg>
