<?xml version="1.0" encoding="utf-8"?>
<!-- Generator: Adobe Illustrator 18.1.1, SVG Export Plug-In . SVG Version: 6.00 Build 0)  -->
<!DOCTYPE svg PUBLIC "-//W3C//DTD SVG 1.1 Tiny//EN" "http://www.w3.org/Graphics/SVG/1.1/DTD/svg11-tiny.dtd">
<svg version="1.1" baseProfile="tiny" xmlns="http://www.w3.org/2000/svg" xmlns:xlink="http://www.w3.org/1999/xlink" x="0px"
	 y="0px" width="32px" height="32px" viewBox="0 0 32 32" xml:space="preserve">
<g id="Guides__x26__Forms">
</g>
<g id="Icons">
	<g>
		<path d="M18.445,4.809C17.997,4.286,17.51,4,17,4h-5v1h3.41c-1.269,1.657-2.197,5.225-2.375,9.5h7.931
			c-0.111-2.654-0.511-5.034-1.101-6.858l7.858,7.858H13v1h0.008c0.065,4.707,1.029,8.714,2.395,10.5H12v1h5
			c0.468,0,0.916-0.254,1.333-0.697l0.001,0L29.637,16L18.445,4.809z M19.868,24.355c0.663-2.049,1.082-4.804,1.124-7.855h6.731
			L19.868,24.355z"/>
		<polygon points="7.464,13.879 9.086,15.5 4,15.5 4,16.5 9.086,16.5 7.464,18.121 8.172,18.828 11,16 8.172,13.172 		"/>
		<polygon points="7.464,25.379 9.086,27 4,27 4,28 9.086,28 7.464,29.621 8.172,30.328 11,27.5 8.172,24.672 		"/>
		<polygon points="7.464,2.379 9.086,4 4,4 4,5 9.086,5 7.464,6.621 8.172,7.328 11,4.5 8.172,1.672 		"/>
	</g>
</g>
</svg>
