<?xml version="1.0" encoding="utf-8"?>
<!-- Generator: Adobe Illustrator 18.1.1, SVG Export Plug-In . SVG Version: 6.00 Build 0)  -->
<!DOCTYPE svg PUBLIC "-//W3C//DTD SVG 1.1 Tiny//EN" "http://www.w3.org/Graphics/SVG/1.1/DTD/svg11-tiny.dtd">
<svg version="1.1" baseProfile="tiny" id="Layer_1" xmlns="http://www.w3.org/2000/svg" xmlns:xlink="http://www.w3.org/1999/xlink"
	 x="0px" y="0px" width="32px" height="32px" viewBox="0 0 32 32" xml:space="preserve">
<g>
	<path d="M27.938,19.014c0.825,0,1.5-0.675,1.5-1.5c0-0.825-0.675-1.5-1.5-1.5h-8.75l0.09-0.5h7.681c0.825,0,1.5-0.675,1.5-1.5
		s-0.675-1.5-1.5-1.5h-4.648c-0.726,0.924-1.734,1.5-2.852,1.5s-2.126-0.576-2.852-1.5H12.96l1.283-1.282
		c1.345-1.345,1.463-4.049,0.558-4.953c-0.304-0.304-0.74-0.412-1.024-0.127l-6.75,6.618c-1.512,1.394-2.465,3.385-2.465,5.604
		c0,4.038,3.465,7.373,7.435,7.641h12.961c0.825,0,1.5-0.675,1.5-1.5c0-0.825-0.675-1.5-1.5-1.5h-7.036l0.088-0.488h8.948
		c0.825,0,1.5-0.675,1.5-1.5c0-0.825-0.675-1.5-1.5-1.5h-8.406l0.093-0.512H27.938z"/>
	<path d="M19.459,11.134c0.385,0,0.769-0.146,1.061-0.438c0.583-0.583,0.583-1.538,0-2.121l-1.061-1.061l-1.061,1.061
		c-0.583,0.583-0.583,1.538,0,2.121C18.69,10.988,19.074,11.134,19.459,11.134z"/>
</g>
</svg>
