<?xml version="1.0" encoding="utf-8"?>
<!-- Generator: Adobe Illustrator 18.1.1, SVG Export Plug-In . SVG Version: 6.00 Build 0)  -->
<!DOCTYPE svg PUBLIC "-//W3C//DTD SVG 1.1 Tiny//EN" "http://www.w3.org/Graphics/SVG/1.1/DTD/svg11-tiny.dtd">
<svg version="1.1" baseProfile="tiny" id="Layer_1" xmlns="http://www.w3.org/2000/svg" xmlns:xlink="http://www.w3.org/1999/xlink"
	 x="0px" y="0px" width="32px" height="32px" viewBox="0 0 32 32" xml:space="preserve">
<path d="M28.8,9.4c-0.331-0.442-0.957-0.531-1.4-0.2c-0.171,0.129-0.351,0.242-0.538,0.34L22.49,5.089
	c0.017-0.106,0.02-0.129,0.037-0.235c0.626-0.412,0.61-1.251,0.074-1.654c-0.441-0.332-1.068-0.243-1.4,0.199
	C20.415,4.444,20,5.689,20,7v1c0,0.552,0.448,1,1,1s1-0.448,1-1V7.446L24.509,10H16c-1.654,0-3.154,0.673-4.241,1.759
	S10,14.346,10,16v2c0,0.552,0.448,1,1,1s1-0.448,1-1v-1.586l3.58,3.58c0.002,0.002,0.005,0.004,0.008,0.006h-0.001H14H7
	c-1.31,0-2.555,0.415-3.6,1.2c-0.442,0.332-0.531,0.958-0.2,1.4c0.196,0.262,0.497,0.4,0.801,0.4c0.317,0,0.639-0.15,0.849-0.469
	c0.105-0.016,0.126-0.019,0.231-0.035l4.424,4.424c-0.016,0.104-0.019,0.125-0.035,0.229C8.847,27.561,8.864,28.398,9.4,28.8
	C9.579,28.935,9.79,29,9.999,29c0.304,0,0.604-0.138,0.8-0.399C11.585,27.556,12,26.311,12,25v-1c0-0.552-0.448-1-1-1s-1,0.448-1,1
	v0.586L7.414,22H16c1.654,0,3.154-0.673,4.241-1.759S22,17.654,22,16v-2c0-0.552-0.448-1-1-1s-1,0.448-1,1v1.586L16.414,12H25
	c1.31,0,2.555-0.415,3.601-1.2C29.042,10.469,29.131,9.842,28.8,9.4z M19.497,17.91c-0.357,0.644-0.816,1.158-1.586,1.586
	l-5.404-5.404c0.184-0.335,0.398-0.651,0.667-0.919s0.584-0.483,0.919-0.667L19.497,17.91z"/>
</svg>
