<?xml version="1.0" encoding="utf-8"?>
<!-- Generator: Adobe Illustrator 18.1.1, SVG Export Plug-In . SVG Version: 6.00 Build 0)  -->
<!DOCTYPE svg PUBLIC "-//W3C//DTD SVG 1.1 Tiny//EN" "http://www.w3.org/Graphics/SVG/1.1/DTD/svg11-tiny.dtd">
<svg version="1.1" baseProfile="tiny" id="Layer_1" xmlns="http://www.w3.org/2000/svg" xmlns:xlink="http://www.w3.org/1999/xlink"
	 x="0px" y="0px" width="32px" height="32px" viewBox="0 0 32 32" xml:space="preserve">
<g>
	<path d="M5.008,11.857c-1.17,1.17-1.755,2.706-1.755,4.243s0.585,3.073,1.755,4.243l1.414,1.414c0.391,0.391,1.024,0.391,1.414,0
		c0.391-0.391,0.391-1.024,0-1.414l-1.121-1.121h2.014c-0.237-0.637-0.406-1.305-0.494-2H5.431
		c-0.107-0.367-0.179-0.742-0.179-1.121c0-0.379,0.072-0.754,0.179-1.121h2.795c0.082-0.688,0.245-1.357,0.477-2H6.715l6.071-6.071
		c0.926-0.926,1.513-2.1,1.698-3.394c0.078-0.547-0.303-1.053-0.849-1.131c-0.547-0.079-1.052,0.301-1.131,0.849
		c-0.03,0.212-0.077,0.42-0.14,0.621L6.125,3.795C6.062,3.709,6.048,3.69,5.985,3.603c0.151-0.734-0.453-1.316-1.118-1.222
		C4.321,2.459,3.94,2.965,4.018,3.512C4.202,4.806,4.788,5.98,5.715,6.907l0.707,0.707c0.391,0.391,1.024,0.391,1.414,0
		c0.391-0.391,0.391-1.024,0-1.414L7.445,5.808l3.58,0.032L5.008,11.857z"/>
	<path d="M12.786,25.292l-0.707-0.707c-0.391-0.391-1.024-0.391-1.414,0c-0.391,0.391-0.391,1.024,0,1.414l0.414,0.414H7.422
		l3.674-3.674c-0.493-0.453-0.938-0.956-1.321-1.507l-4.059,4.059c-0.926,0.926-1.513,2.1-1.697,3.394
		c-0.078,0.547,0.302,1.053,0.849,1.131c0.324,0.047,0.634-0.068,0.849-0.283c0.224-0.224,0.346-0.558,0.269-0.932
		c0.063-0.086,0.075-0.103,0.138-0.188h6.257c0.062,0.084,0.075,0.102,0.137,0.186c-0.149,0.733,0.454,1.313,1.118,1.218
		c0.223-0.031,0.418-0.134,0.566-0.282c0.215-0.215,0.33-0.524,0.283-0.848C14.3,27.393,13.713,26.219,12.786,25.292z"/>
	<path d="M24.236,20.076c1.764-3.088,1.338-7.081-1.297-9.715c-3.156-3.156-8.269-3.156-11.425,0c-3.154,3.154-3.154,8.269,0,11.423
		c2.634,2.634,6.63,3.061,9.714,1.296l5.754,5.754l3.007-3.006L24.236,20.076z M21.737,20.581c-2.491,2.491-6.529,2.49-9.019,0
		c-2.491-2.492-2.491-6.527,0-9.018c2.491-2.492,6.528-2.493,9.019,0C24.228,14.054,24.228,18.09,21.737,20.581z"/>
	<path d="M17.058,13.143l-2.222-1.141l-2.719,1.404v3.273l2.25,1.138v2.789l2.696,1.348l2.692-1.335v-2.806L22,16.726v-3.373
		L19.294,12L17.058,13.143z M18.857,20.064l-1.795,0.898l-1.795-0.898v-2.215l1.795-0.929l1.795,0.929V20.064z M21.101,13.921v2.215
		l-1.794,0.898l-1.795-0.898v-2.215l1.795-0.929L21.101,13.921z"/>
</g>
</svg>
