<?xml version="1.0" encoding="utf-8"?>
<!-- Generator: Adobe Illustrator 18.1.1, SVG Export Plug-In . SVG Version: 6.00 Build 0)  -->
<!DOCTYPE svg PUBLIC "-//W3C//DTD SVG 1.1 Tiny//EN" "http://www.w3.org/Graphics/SVG/1.1/DTD/svg11-tiny.dtd">
<svg version="1.1" baseProfile="tiny" id="Layer_1" xmlns="http://www.w3.org/2000/svg" xmlns:xlink="http://www.w3.org/1999/xlink"
	 x="0px" y="0px" width="32px" height="32px" viewBox="0 0 32 32" xml:space="preserve">
<g>
	<path d="M4.659,11.603c-1.17,1.17-1.755,2.706-1.755,4.243s0.585,3.073,1.755,4.243l1.414,1.414c0.391,0.39,1.024,0.391,1.414,0
		c0.391-0.391,0.391-1.024,0-1.414l-1.121-1.121l3.542,0l-0.337-0.17l-0.549-0.277v-0.615v-0.937l-3.94,0
		c-0.107-0.367-0.179-0.742-0.179-1.121c0-0.379,0.072-0.755,0.179-1.121h3.94v-2l-2.656,0l6.071-6.071
		c0.926-0.926,1.513-2.1,1.698-3.394c0.078-0.547-0.303-1.053-0.849-1.131c-0.547-0.079-1.052,0.301-1.131,0.849
		c-0.03,0.212-0.077,0.42-0.14,0.621L5.776,3.542C5.713,3.455,5.699,3.436,5.636,3.35c0.151-0.734-0.453-1.316-1.118-1.222
		c-0.547,0.077-0.927,0.583-0.85,1.131c0.184,1.294,0.771,2.468,1.697,3.395L6.073,7.36c0.391,0.391,1.024,0.391,1.414,0
		c0.391-0.391,0.391-1.024,0-1.414L7.095,5.554l3.58,0.032L4.659,11.603z"/>
	<path d="M12.437,25.038l-0.707-0.707c-0.391-0.391-1.024-0.391-1.414,0c-0.391,0.391-0.391,1.024,0,1.414l0.414,0.414H7.073
		l5.729-5.729l-1.879-0.95l-0.608,0.608l-4.95,4.95c-0.926,0.926-1.513,2.1-1.697,3.394c-0.078,0.547,0.302,1.053,0.849,1.131
		c0.324,0.047,0.634-0.068,0.849-0.283c0.224-0.224,0.346-0.558,0.269-0.932c0.063-0.086,0.075-0.103,0.138-0.188h6.257
		c0.062,0.084,0.075,0.102,0.137,0.186c-0.149,0.733,0.454,1.313,1.118,1.218c0.223-0.031,0.418-0.134,0.566-0.282
		c0.215-0.215,0.33-0.524,0.283-0.848C13.951,27.139,13.364,25.965,12.437,25.038z"/>
	<path d="M24.529,8.446l-4.518,2.31l-4.492-2.307l-5.497,2.838v6.617l4.549,2.3v5.638l5.451,2.726l5.442-2.698v-5.671L30,18v-6.819
		L24.529,8.446z M23.646,24.746l-3.629,1.815l-3.629-1.815v-4.478l3.629-1.878l3.629,1.878V24.746z M28.183,16.806l-3.628,1.815
		l-3.629-1.815v-4.478l3.629-1.879l3.628,1.879V16.806z"/>
</g>
</svg>
