<?xml version="1.0" encoding="utf-8"?>
<!-- Generator: Adobe Illustrator 18.1.1, SVG Export Plug-In . SVG Version: 6.00 Build 0)  -->
<!DOCTYPE svg PUBLIC "-//W3C//DTD SVG 1.1 Tiny//EN" "http://www.w3.org/Graphics/SVG/1.1/DTD/svg11-tiny.dtd">
<svg version="1.1" baseProfile="tiny" xmlns="http://www.w3.org/2000/svg" xmlns:xlink="http://www.w3.org/1999/xlink" x="0px"
	 y="0px" width="32px" height="32px" viewBox="0 0 32 32" xml:space="preserve">
<g id="Guides__x26__Forms">
</g>
<g id="Icons">
	<g>
		<path d="M26.459,2.92c-1.172-1.172-3.071-1.172-4.243,0l-4.95,4.95l-0.707-0.707c-0.391-0.391-1.024-0.391-1.414,0
			c-0.39,0.391-0.391,1.024,0,1.414l5.657,5.657c0.391,0.391,1.024,0.391,1.414,0s0.391-1.024,0-1.414l-0.707-0.707l4.95-4.95
			C27.63,5.991,27.63,4.091,26.459,2.92z"/>
		<polygon points="11.132,19.661 8.304,21.075 9.718,18.247 16.559,11.405 15.145,9.991 8.074,17.062 5.246,22.719 6.66,24.133 
			12.317,21.305 19.388,14.233 17.974,12.819 		"/>
		<path d="M6.66,25.133l-1.414,1.414c-0.778,0.778-0.778,2.051,0,2.828c0.778,0.778,2.051,0.778,2.828,0
			c0.778-0.778,0.778-2.051,0-2.828L6.66,25.133z"/>
	</g>
</g>
</svg>
