<?xml version="1.0" encoding="utf-8"?>
<!-- Generator: Adobe Illustrator 18.1.1, SVG Export Plug-In . SVG Version: 6.00 Build 0)  -->
<!DOCTYPE svg PUBLIC "-//W3C//DTD SVG 1.1 Tiny//EN" "http://www.w3.org/Graphics/SVG/1.1/DTD/svg11-tiny.dtd">
<svg version="1.1" baseProfile="tiny" id="Layer_1" xmlns="http://www.w3.org/2000/svg" xmlns:xlink="http://www.w3.org/1999/xlink"
	 x="0px" y="0px" width="32px" height="32px" viewBox="0 0 32 32" xml:space="preserve">
<path d="M28.016,14.142c-1.769-1.437-3.321-1.105-3.321-1.105c-1.163,0.211-2.058,1.017-2.448,2.046
	c-0.116,0.306,0.193,0.608,0.505,0.508c1.194-0.383,2.499-0.466,3.808-0.171c-1.677,0-3.219,0.574-4.453,1.528
	c-0.331,0.256-0.634,0.746-0.91,1.167c-0.14-1.021-0.583-2.007-1.366-2.79l-1.152-1.152c-0.318-0.318-0.834-0.318-1.152,0
	s-0.318,0.834,0,1.152l0.914,0.914l-4.132,0l3.573-3.573c1.452-0.099,2.846-0.826,3.73-2.124c0,0,1.416-1.943,0.517-5.277
	C21.471,2.83,21.462,2.02,21.461,2c-0.019,0.007-0.776,0.295-3.283,0.574c-3.432,0.383-4.723,2.411-4.723,2.411l0,0
	c-1.012,1.485-1.094,3.317-0.388,4.834c0.492,1.058,1.806,1.386,2.772,0.731c1.645-1.115,3.01-2.683,3.877-4.629
	c-0.422,2.111-1.428,3.956-2.809,5.414l-3.99,3.99c-0.953,0.953-1.43,2.205-1.43,3.457c0,0.106,0.023,0.21,0.03,0.316
	c-0.509-0.667-1.28-1.675-1.629-1.945c-1.234-0.954-2.776-1.528-4.453-1.528c1.309-0.295,2.615-0.212,3.808,0.171
	c0.312,0.1,0.621-0.202,0.505-0.508c-0.39-1.029-1.285-1.835-2.448-2.046c0,0-1.552-0.333-3.321,1.105
	c-1.292,1.05-1.778,1.273-1.79,1.278c0.01,0.01,0.386,0.389,1.227,1.826c1.152,1.967,2.722,2.201,2.722,2.201l0,0
	c1.15,0.208,2.261-0.221,2.992-1.028c0.868,1.387,3.065,3.403,5.049,4.859l-0.017-0.029c0.319,0.241,0.769,0.23,1.06-0.061
	c0.318-0.318,0.318-0.834,0-1.152l-0.914-0.914l4.125,0c0.003,0,0.005-0.001,0.008-0.001l-0.001,0.001l-0.914,0.914l-4.033,4.033
	c-0.755,0.755-1.233,1.711-1.383,2.766c-0.064,0.446,0.246,0.858,0.692,0.922c0.264,0.038,0.517-0.056,0.692-0.231
	c0.183-0.183,0.282-0.455,0.219-0.76c0.051-0.07,0.061-0.084,0.113-0.153h5.098c0.051,0.069,0.061,0.083,0.112,0.152
	c-0.121,0.597,0.37,1.07,0.911,0.993c0.181-0.026,0.341-0.109,0.461-0.23c0.175-0.175,0.269-0.427,0.231-0.691
	c-0.149-1.055-0.628-2.011-1.383-2.767l-0.576-0.576c-0.318-0.318-0.834-0.318-1.152,0s-0.318,0.834,0,1.152l0.338,0.338h-2.98
	l4.947-4.947c0.048-0.048,0.081-0.105,0.126-0.155c1.39-1.357,2.171-2.489,2.908-3.667c0.73,0.807,1.842,1.237,2.992,1.028l0,0
	c0,0,1.57-0.234,2.722-2.201c0.841-1.437,1.218-1.816,1.227-1.826C29.794,15.415,29.308,15.192,28.016,14.142z M13.262,19.697
	c-0.087-0.299-0.146-0.605-0.146-0.914s0.058-0.615,0.146-0.914h6.228c0.165,0.577,0.197,1.138,0,1.828L13.262,19.697z"/>
</svg>
