<?xml version="1.0" encoding="utf-8"?>
<!-- Generator: Adobe Illustrator 18.1.1, SVG Export Plug-In . SVG Version: 6.00 Build 0)  -->
<!DOCTYPE svg PUBLIC "-//W3C//DTD SVG 1.1 Tiny//EN" "http://www.w3.org/Graphics/SVG/1.1/DTD/svg11-tiny.dtd">
<svg version="1.1" baseProfile="tiny" xmlns="http://www.w3.org/2000/svg" xmlns:xlink="http://www.w3.org/1999/xlink" x="0px"
	 y="0px" width="32px" height="32px" viewBox="0 0 32 32" xml:space="preserve">
<g id="Guides__x26__Forms">
</g>
<g id="Icons">
	<g>
		<path d="M23.976,8l1.08-2.006C26.13,5.963,27,5.081,27,4c0-1.1-0.9-2-2-2s-2,0.9-2,2c0,0.381,0.114,0.735,0.301,1.039L21.703,8H4
			v2h2v17c0,1.657,1.343,3,3,3h14c1.657,0,3-1.343,3-3V10h2V8H23.976z M24,28H8V10h16V28z"/>
		<path d="M23,18H9v9h14V18z M20,24h-8v-1h8V24z M20,21h-8v-1h8V21z"/>
		<rect x="12" y="12" width="8" height="1"/>
		<rect x="12" y="15" width="8" height="1"/>
	</g>
</g>
</svg>
