<?xml version="1.0" encoding="utf-8"?>
<!-- Generator: Adobe Illustrator 18.1.1, SVG Export Plug-In . SVG Version: 6.00 Build 0)  -->
<!DOCTYPE svg PUBLIC "-//W3C//DTD SVG 1.1 Tiny//EN" "http://www.w3.org/Graphics/SVG/1.1/DTD/svg11-tiny.dtd">
<svg version="1.1" baseProfile="tiny" xmlns="http://www.w3.org/2000/svg" xmlns:xlink="http://www.w3.org/1999/xlink" x="0px"
	 y="0px" width="32px" height="32px" viewBox="0 0 32 32" xml:space="preserve">
<g id="Guides__x26__Forms">
</g>
<g id="Icons">
	<g>
		<path d="M28.34,18.237c-1.017-0.69-2.123-0.198-2.631,0.095l-5.745,4.668H15.6L14.667,22h3.429c1.031,0,2.186-0.667,2.186-1.863
			c0-1.269-1.155-1.805-2.186-1.805H16.81c-0.954,0-2.07,0.085-2.856-0.336l0,0.003c-0.747-0.38-1.608-0.6-2.526-0.6
			c-1.542,0-2.923,0.615-3.868,1.584l-5.026,4.948l5.6,5.881L10,27h9.452c0.941,0,1.849-0.331,2.552-0.956l6.4-6.527
			C28.795,19.169,28.773,18.531,28.34,18.237z"/>
		<path d="M14.377,7.465c-0.569-1.092-0.588-1.894,1.991-1.534c0.654-0.431,1.149-0.719,1.913-1.097
			c0.485-1.19,1.072-1.814,1.406-1.814c0.23,0,0.58,0.296,0.934,0.865c0.511-0.16,1.012-0.282,1.499-0.372
			c-1.589-3.004-3.988-2.522-5.301,0.976c-3.604-0.604-5.329,1.164-3.52,4.074C13.622,8.19,13.982,7.822,14.377,7.465z"/>
		<path d="M19.037,13.285c0.376,0.179,0.75,0.343,1.118,0.484c0.159-0.386,0.312-0.86,0.44-1.426
			c-0.663-0.26-1.337-0.582-1.994-0.961C18.704,12.137,18.862,12.765,19.037,13.285z"/>
		<path d="M15.793,14.546c-0.158-0.458-0.294-0.952-0.408-1.477c-0.738-0.016-1.175-0.198-1.281-0.382
			c-0.431-0.747,1.255-2.638,1.891-3.232c0,4.401,1.655,7.944,3.691,7.944c1.74,0,3.19-2.595,3.579-6.077
			c-0.577-0.148-1.074-0.492-1.409-0.965c-0.202,3.609-1.579,5.554-2.17,5.554c-0.933,0-2.5-3.318-2.151-7.688
			c0.749-0.517,1.372-0.871,2.151-1.239c0.917,0.432,1.798,0.945,2.731,1.661c-0.202,1.06,0.749,1.992,1.826,1.718
			c1.875,2.246,1.042,2.674-0.248,2.705c-0.115,0.521-0.252,1.017-0.414,1.477c3.384,0.148,4.336-2.169,1.723-5.227
			c0.318-1.145-0.765-2.18-1.904-1.794c-0.684-0.531-1.207-0.864-1.877-1.26c1.413-0.432,4.141-0.888,3.721,0.598
			c0.488,0.324,0.844,0.819,1.007,1.397c2.281-4.154-2.8-5.23-8.412-1.992C11.88,9.71,10.693,14.768,15.793,14.546z"/>
	</g>
</g>
</svg>
