<?xml version="1.0" encoding="utf-8"?>
<!-- Generator: Adobe Illustrator 18.1.1, SVG Export Plug-In . SVG Version: 6.00 Build 0)  -->
<!DOCTYPE svg PUBLIC "-//W3C//DTD SVG 1.1 Tiny//EN" "http://www.w3.org/Graphics/SVG/1.1/DTD/svg11-tiny.dtd">
<svg version="1.1" baseProfile="tiny" xmlns="http://www.w3.org/2000/svg" xmlns:xlink="http://www.w3.org/1999/xlink" x="0px"
	 y="0px" width="32px" height="32px" viewBox="0 0 32 32" xml:space="preserve">
<g id="Guides__x26__Forms">
</g>
<g id="Icons">
	<g>
		<path d="M5,27l-1.061,1.061c-0.586,0.586-0.586,1.536,0,2.121c0.586,0.586,1.536,0.586,2.121,0c0.586-0.586,0.586-1.536,0-2.121
			L5,27z"/>
		<path d="M27.627,11.444l1.414-1.414l-8.463-8.463L19.164,2.98l1.392,1.392l-2.121,2.121l-2.828-2.828L14.192,5.08l2.121,2.121
			l-9.192,9.192c0.283,0.872,0.818,1.803,1.518,2.724l-1.518,1.518l1.061,1.061L5,24.879l0,1.414l3.889-3.889l1.061,1.061
			l1.518-1.518c0.922,0.7,1.852,1.236,2.724,1.518l9.192-9.192l2.121,2.121l1.414-1.414l-2.851-2.851l2.121-2.121L27.627,11.444z
			 M13.485,21.343l-4.243-4.243l8.485-8.485l4.243,4.243L13.485,21.343z M21.263,9.322l-1.414-1.414l2.121-2.121l1.414,1.414
			L21.263,9.322z"/>
		<polygon points="10.657,17.101 13.485,19.929 17.728,15.686 12.071,15.686 		"/>
	</g>
</g>
</svg>
