<?xml version="1.0" encoding="utf-8"?>
<!-- Generator: Adobe Illustrator 18.1.1, SVG Export Plug-In . SVG Version: 6.00 Build 0)  -->
<!DOCTYPE svg PUBLIC "-//W3C//DTD SVG 1.1 Tiny//EN" "http://www.w3.org/Graphics/SVG/1.1/DTD/svg11-tiny.dtd">
<svg version="1.1" baseProfile="tiny" xmlns="http://www.w3.org/2000/svg" xmlns:xlink="http://www.w3.org/1999/xlink" x="0px"
	 y="0px" width="32px" height="32px" viewBox="0 0 32 32" xml:space="preserve">
<g id="Guides__x26__Forms">
</g>
<g id="Icons">
	<g>
		<polygon points="13,20 8.05,15.05 8.05,18.05 10,20 		"/>
		<path d="M24.314,7.272l1.414-1.414l-3.536-3.536l-1.414,1.414l0.707,0.707l-1.414,1.414l-1.414-1.414l-9.9,9.899l4.95,4.951
			l2.592-2.593C16.941,17.487,17.906,18,19,18c0.211,0,0.415-0.026,0.616-0.062C19.856,18.582,20,19.273,20,20c0,3.308-2.692,6-6,6
			H7v4h15v-4h-0.014C23.245,24.327,24,22.254,24,20c0-1.946-0.559-3.759-1.521-5.295C22.483,14.636,22.5,14.57,22.5,14.5
			c0-1.094-0.513-2.059-1.299-2.701l2.406-2.406l-1.414-1.414l1.414-1.414L24.314,7.272z M13,15.756l-1.414-1.413l7.071-7.072
			l1.415,1.414L13,15.756z M19,16c-0.827,0-1.5-0.673-1.5-1.5S18.173,13,19,13s1.5,0.673,1.5,1.5S19.827,16,19,16z"/>
		<rect x="4" y="22" width="9" height="2"/>
	</g>
</g>
</svg>
