<?xml version="1.0" encoding="utf-8"?>
<!-- Generator: Adobe Illustrator 18.1.1, SVG Export Plug-In . SVG Version: 6.00 Build 0)  -->
<!DOCTYPE svg PUBLIC "-//W3C//DTD SVG 1.1 Tiny//EN" "http://www.w3.org/Graphics/SVG/1.1/DTD/svg11-tiny.dtd">
<svg version="1.1" baseProfile="tiny" xmlns="http://www.w3.org/2000/svg" xmlns:xlink="http://www.w3.org/1999/xlink" x="0px"
	 y="0px" width="32px" height="32px" viewBox="0 0 32 32" xml:space="preserve">
<g id="Guides__x26__Forms">
</g>
<g id="Icons">
	<path d="M28.888,7.65c0.002-2.481-2.015-4.502-4.5-4.505c-1.205,0-2.296,0.483-3.104,1.257C19.672,3.665,17.884,3.25,16,3.25
		C8.97,3.25,3.25,8.97,3.25,16S8.97,28.75,16,28.75S28.75,23.03,28.75,16c0-1.866-0.408-3.637-1.132-5.235
		C28.4,9.956,28.887,8.86,28.888,7.65z M24.391,4.145c1.931,0.002,3.499,1.574,3.497,3.504c-0.001,0.813-0.292,1.552-0.759,2.146
		c-0.268-0.479-0.572-0.935-0.898-1.374c0.1-0.238,0.156-0.499,0.156-0.774c0.001-1.105-0.893-2.001-1.998-2.002
		c-0.001,0-0.001,0-0.001,0c-0.272,0-0.531,0.055-0.767,0.154c-0.438-0.328-0.892-0.633-1.371-0.904
		C22.844,4.432,23.581,4.145,24.391,4.145z M24.385,9.645c0.001,0,0.001,0,0.002,0c0.27,0,0.527-0.055,0.762-0.152
		c0.29,0.406,0.555,0.829,0.791,1.272c-0.47,0.235-0.992,0.38-1.552,0.38v0.5l-0.005-0.5c-0.797-0.001-1.523-0.279-2.112-0.73
		l1.073-1.071C23.649,9.531,24.003,9.645,24.385,9.645z M23.388,7.644c0.001-0.551,0.449-0.999,1-0.999h0.001
		c0.267,0,0.518,0.105,0.707,0.294s0.292,0.44,0.292,0.707c-0.001,0.551-0.449,0.999-1.001,0.999c-0.267,0-0.518-0.105-0.707-0.294
		C23.491,8.162,23.387,7.911,23.388,7.644z M21.274,6.08c0.442,0.237,0.864,0.504,1.268,0.795c-0.099,0.237-0.155,0.496-0.155,0.769
		c0,0.357,0.101,0.688,0.265,0.979l-1.082,1.08c-0.425-0.58-0.683-1.288-0.682-2.061C20.888,7.077,21.036,6.552,21.274,6.08z
		 M16.006,13.011c-0.001,0-0.002,0-0.003,0c-1.655,0-2.998,1.341-3,2.997c-0.002,1.657,1.34,3.001,2.997,3.003
		c0.001,0,0.002,0,0.003,0c1.655,0,2.998-1.341,3-2.997c0.001-0.66-0.218-1.264-0.578-1.76l1.594-1.591
		c0.757,0.91,1.231,2.063,1.231,3.337c0,2.895-2.355,5.25-5.25,5.25c-2.895,0-5.25-2.355-5.25-5.25s2.355-5.25,5.25-5.25
		c1.261,0,2.403,0.465,3.309,1.208l-1.595,1.592C17.229,13.213,16.642,13.012,16.006,13.011z M17.503,16.013
		c-0.001,0.826-0.674,1.498-1.502,1.498c-0.827-0.001-1.499-0.674-1.498-1.502c0.001-0.826,0.674-1.498,1.5-1.498h0.002
		C16.832,14.512,17.504,15.185,17.503,16.013z M16,27.25C9.797,27.25,4.75,22.203,4.75,16S9.797,4.75,16,4.75
		c1.554,0,3.029,0.326,4.375,0.9c-0.301,0.603-0.487,1.273-0.487,1.991c-0.001,1.048,0.373,2.001,0.975,2.767l-0.475,0.474
		C19.207,9.867,17.675,9.25,16,9.25c-3.722,0-6.75,3.028-6.75,6.75s3.028,6.75,6.75,6.75c3.722,0,6.75-3.028,6.75-6.75
		c0-1.687-0.626-3.228-1.653-4.412l0.468-0.467c0.773,0.63,1.746,1.023,2.818,1.024h0.006c0.713,0,1.378-0.182,1.978-0.479
		C26.93,13.001,27.25,14.462,27.25,16C27.25,22.203,22.203,27.25,16,27.25z"/>
</g>
</svg>
