<?xml version="1.0" encoding="utf-8"?>
<!-- Generator: Adobe Illustrator 18.1.1, SVG Export Plug-In . SVG Version: 6.00 Build 0)  -->
<!DOCTYPE svg PUBLIC "-//W3C//DTD SVG 1.1 Tiny//EN" "http://www.w3.org/Graphics/SVG/1.1/DTD/svg11-tiny.dtd">
<svg version="1.1" baseProfile="tiny" xmlns="http://www.w3.org/2000/svg" xmlns:xlink="http://www.w3.org/1999/xlink" x="0px"
	 y="0px" width="32px" height="32px" viewBox="0 0 32 32" xml:space="preserve">
<g id="Guides__x26__Forms">
</g>
<g id="Icons">
	<g>
		<rect x="13" y="2" width="6" height="2"/>
		<path d="M22.806,11.45L20,10.003V7h2V5.026H10V7h2v3.003L9.194,11.45C7.897,12.111,7,13.444,7,15v13c0,1.105,0.895,2,2,2h14
			c1.105,0,2-0.895,2-2V15C25,13.444,24.103,12.111,22.806,11.45z M13.782,19.5c-0.264,0.225-0.496,0.482-0.682,0.776l-0.418-0.418
			c-0.123,0.113-0.284,0.183-0.463,0.183c-0.378,0-0.688-0.309-0.688-0.688s0.309-0.688,0.688-0.688c0.026,0,0.05,0.005,0.075,0.008
			c0.031-0.312,0.293-0.558,0.612-0.558c0.34,0,0.619,0.278,0.619,0.619c0,0.142-0.05,0.272-0.132,0.377L13.782,19.5z
			 M13.594,25.583l-0.183,0.183c0.113,0.123,0.183,0.284,0.183,0.463c0,0.378-0.309,0.688-0.688,0.688s-0.688-0.309-0.688-0.688
			c0-0.026,0.005-0.05,0.008-0.075c-0.311-0.031-0.558-0.293-0.558-0.613c0-0.34,0.279-0.619,0.619-0.619
			c0.142,0,0.272,0.05,0.376,0.132l0.481-0.481l0.448,0.304V25.583z M17.718,25.541h-0.687v-0.688h-0.688v0.688h-0.687v-0.688
			h-0.688v0.688h-0.688V24.51c-1.19-0.794-1.031-0.421-1.031-2.406c0-1.519,1.231-2.75,2.75-2.75c1.519,0,2.75,1.231,2.75,2.75
			c0,1.944,0.187,1.594-1.032,2.406V25.541z M19.774,26.154c0.003,0.025,0.008,0.049,0.008,0.075c0,0.378-0.309,0.688-0.688,0.688
			s-0.688-0.309-0.688-0.688c0-0.178,0.071-0.34,0.183-0.463l-0.183-0.183v-0.706l0.448-0.304l0.481,0.481
			c0.105-0.081,0.234-0.132,0.377-0.132c0.34,0,0.619,0.278,0.619,0.619C20.331,25.861,20.085,26.123,19.774,26.154z M19.781,20.041
			c-0.178,0-0.34-0.071-0.463-0.183L18.9,20.276c-0.186-0.294-0.418-0.551-0.682-0.776l0.388-0.388
			c-0.081-0.105-0.132-0.234-0.132-0.377c0-0.34,0.278-0.619,0.619-0.619c0.319,0,0.581,0.246,0.613,0.558
			c0.025-0.003,0.049-0.008,0.075-0.008c0.378,0,0.688,0.309,0.688,0.688S20.159,20.041,19.781,20.041z M23,16.033H9V15
			c0-0.744,0.423-1.422,1.11-1.773L14,11.223V7.026h4v4.197l3.897,2.008C22.578,13.578,23,14.256,23,15V16.033z"/>
		<circle cx="14.625" cy="22.791" r="0.688"/>
		<path d="M16,23.479c-0.19,0-0.344,0.308-0.344,0.688h0.688C16.344,23.787,16.19,23.479,16,23.479z"/>
		<circle cx="17.375" cy="22.791" r="0.688"/>
	</g>
</g>
</svg>
