<?xml version="1.0" encoding="utf-8"?>
<!-- Generator: Adobe Illustrator 18.1.1, SVG Export Plug-In . SVG Version: 6.00 Build 0)  -->
<!DOCTYPE svg PUBLIC "-//W3C//DTD SVG 1.1 Tiny//EN" "http://www.w3.org/Graphics/SVG/1.1/DTD/svg11-tiny.dtd">
<svg version="1.1" baseProfile="tiny" id="Layer_1" xmlns="http://www.w3.org/2000/svg" xmlns:xlink="http://www.w3.org/1999/xlink"
	 x="0px" y="0px" width="32px" height="32px" viewBox="0 0 32 32" xml:space="preserve">
<g>
	<path d="M30,15.47c0-1.509-1.101-2.74-2.825-3.691c0.583-1.896,0.66-3.565,0.234-4.89C27.774,6.527,28,6.025,28,5.47
		c0-1.105-0.895-2-2-2c-0.562,0-1.068,0.233-1.431,0.606c-0.559-0.185-1.176-0.289-1.852-0.289c-2.264,0-4.972,0.995-7.651,2.731
		C10.534,6.986,7,10.815,7,15.47c0,0.314,0.017,0.624,0.048,0.93c1.621,0.753,4.527,1.57,8.952,1.57s7.331-0.817,8.952-1.57
		C24.983,16.094,25,15.784,25,15.47c0-4.624-3.489-8.43-7.977-8.938c2.039-1.109,4.029-1.745,5.694-1.745
		c0.501,0,0.94,0.08,1.351,0.194C24.028,5.139,24,5.301,24,5.47c0,1.105,0.895,2,2,2c0.166,0,0.325-0.026,0.479-0.064
		c0.283,1.085,0.201,2.422-0.237,3.909c-0.025-0.011-0.048-0.024-0.073-0.035c0.149,0.362,0.269,0.738,0.377,1.118
		c0.038,0.134,0.072,0.268,0.105,0.403c0.091,0.371,0.174,0.745,0.228,1.129c0.725,0.521,1.12,1.057,1.12,1.54c0,1.67-4.565,4-12,4
		s-12-2.33-12-4c0-0.483,0.395-1.02,1.12-1.54c0.13-0.924,0.366-1.814,0.711-2.65C3.532,12.282,2,13.683,2,15.47
		c0,1.515,1.092,2.757,2.823,3.711c-0.878,2.868-0.597,5.221,0.824,6.642c0.869,0.87,2.127,1.329,3.637,1.329
		c2.264,0,4.971-1.004,7.65-2.741c2.66-0.278,4.965-1.716,6.423-3.8C27.154,19.657,30,17.918,30,15.47z M26,6.47
		c-0.551,0-1-0.449-1-1s0.449-1,1-1s1,0.449,1,1S26.551,6.47,26,6.47z M9.283,26.153c-1.256,0-2.242-0.349-2.93-1.036
		c-1.153-1.153-1.29-3.152-0.605-5.481c0.867,0.384,1.842,0.711,2.896,0.977c1.44,2.058,3.706,3.491,6.325,3.793
		C12.933,25.514,10.947,26.153,9.283,26.153z"/>
	<polygon points="26.654,24.975 25.94,22.779 25.226,24.975 22.917,24.975 24.785,26.333 24.071,28.53 25.94,27.172 27.809,28.53 
		27.095,26.333 28.964,24.975 	"/>
	<polygon points="4.745,7.275 5.981,6.377 7.217,7.275 6.745,5.822 7.981,4.923 6.453,4.923 5.981,3.47 5.509,4.923 3.981,4.923 
		5.217,5.822 	"/>
</g>
</svg>
