<?xml version="1.0" encoding="utf-8"?>
<!-- Generator: Adobe Illustrator 18.1.1, SVG Export Plug-In . SVG Version: 6.00 Build 0)  -->
<!DOCTYPE svg PUBLIC "-//W3C//DTD SVG 1.1 Tiny//EN" "http://www.w3.org/Graphics/SVG/1.1/DTD/svg11-tiny.dtd">
<svg version="1.1" baseProfile="tiny" xmlns="http://www.w3.org/2000/svg" xmlns:xlink="http://www.w3.org/1999/xlink" x="0px"
	 y="0px" width="32px" height="32px" viewBox="0 0 32 32" xml:space="preserve">
<g id="Guides__x26__Forms">
</g>
<g id="Icons">
	<g>
		<polygon points="7.644,21.574 9.058,18.745 13.071,14.732 11.657,13.318 7.414,17.561 4.586,23.218 6,24.632 11.657,21.803 
			15.899,17.561 13.778,15.439 		"/>
		<path d="M25.799,3.419c-2.734-2.734-7.166-2.734-9.9,0c-1.379,1.379-2.06,3.191-2.048,4.999c0.01,0.781-0.273,1.565-0.869,2.161
			l-0.619,0.619c-0.391,0.391-0.391,1.024,0,1.414l4.243,4.243c0.391,0.391,1.024,0.391,1.414,0l0.619-0.619
			c0.596-0.596,1.38-0.879,2.16-0.869c1.808,0.013,3.62-0.668,4.999-2.048C28.533,10.584,28.533,6.152,25.799,3.419z M15.899,13.318
			l-1.415-1.415c0.9-0.945,1.384-2.187,1.367-3.5c-0.009-1.35,0.51-2.618,1.462-3.57c1.949-1.949,5.122-1.949,7.071,0L15.899,13.318
			z"/>
		<path d="M6,26l-1.414,1.414c-0.778,0.778-0.778,2.051,0,2.828c0.778,0.778,2.051,0.778,2.828,0c0.778-0.778,0.778-2.051,0-2.828
			L6,26z"/>
	</g>
</g>
</svg>
